<svg width="19" height="28" fill="none" xmlns="http://www.w3.org/2000/svg"><g clip-path="url(#clip0)"><path d="M0 0h18.439v27.658H0z"/><path d="M18.439 18.439v-9.22c0-5.07-4.15-9.219-9.22-9.219S0 4.149 0 9.22v9.219c0 5.07 4.149 9.219 9.22 9.219 5.07 0 9.219-4.149 9.219-9.22zm-9.22 7.17c-3.944 0-7.17-3.227-7.17-7.17v-9.22c0-3.944 3.226-7.17 7.17-7.17s7.17 3.226 7.17 7.17v9.22c0 3.943-3.226 7.17-7.17 7.17z" fill="#fff"/><path d="M9.22 5.635c-.564 0-1.025.46-1.025 1.024v3.073c0 .564.461 1.025 1.025 1.025.563 0 1.024-.461 1.024-1.025V6.66c0-.563-.46-1.024-1.024-1.024z" fill="#fff"/></g><defs><clipPath id="clip0"><path fill="#fff" d="M0 0h18.439v27.658H0z"/></clipPath></defs></svg>