<?xml version="1.0"?>
<svg xmlns="http://www.w3.org/2000/svg" xmlns:xlink="http://www.w3.org/1999/xlink" version="1.1" id="Capa_1" x="0px" y="0px" viewBox="0 0 512 512" style="enable-background:new 0 0 512 512;" xml:space="preserve" width="512px" height="512px" class=""><g transform="matrix(-1 -1.22465e-16 1.22465e-16 -1 512 512)">
<g>
	<g>
		<path d="M507.5,4.499c-5.7-5.999-15.299-5.999-20.999,0L354.3,136.7c1.8,5.4,2.999,11.1,3.9,17.1c6,0.899,11.7,2.1,17.1,3.9    L507.5,25.499C513.5,19.799,513.5,10.199,507.5,4.499z" data-original="#000000" class="active-path" fill="#FFFFFF"/>
	</g>
</g><g>
	<g>
		<path d="M481.8,248.3c-19.799-46.5-57.001-77.999-106.5-90.599L330,203v84c0,8.291-6.709,15-15,15c-8.291,0-15-6.709-15-15v-54    l-30,30v54c0,8.291-6.709,15-15,15c-8.291,0-15.1-6.709-15.1-15v-24L210,323v24c0,8.291-6.709,15-15,15    c-6.519,0-11.922-4.204-13.993-10.007l-0.106,0.106l-5.402,5.4c-5.396,5.999-15.601,6.002-20.999,0c-6-5.7-6-15.3,0-21    l5.506-5.506C154.205,328.922,150,323.519,150,317c0-8.291,6.709-15,15-15h24l30-30h-24c-8.291,0-15-6.709-15-15    c0-8.291,6.709-15,15-15h54l30-30h-54c-8.291,0-15-6.709-15-15s6.709-15,15-15h84l45.3-45.3    C341.701,87.199,310.201,50,263.699,30.2C203.101,4.399,126.9,14.599,74.1,55.399c-4.499,3.6-6.599,9-5.698,14.7    c1.199,5.402,5.099,9.901,10.199,11.7c28.5,9,55.499,21.301,80.4,36c6.901,4.2,9.3,13.5,5.099,20.4    c-4.199,6.899-13.499,9.3-20.698,5.4C113.7,125.6,80.1,112.099,44.1,103.4c-6.599-1.8-13.499,1.199-16.8,7.2    c-10.199,18.3-17.399,38.699-21.899,60.899C3.901,179.599,9,187.4,16.8,189.2c23.699,5.099,45.601,13.2,65.7,23.399    c7.2,3.602,10.201,12.902,6.301,20.101c-3.6,7.2-12.301,10.499-20.4,6.299c-14.702-7.5-31.201-13.499-48.9-18.3    c-4.501-1.199-9.3-0.3-13.2,2.701C2.701,226.099,0,230.6,0,235.099V298.1c0,6.299,4.501,11.999,10.5,14.099    c16.501,6,31.501,14.401,44.401,24.901c6.674,5.341,7.2,14.996,2.399,21c-4.499,5.4-11.1,10.199-21.299,2.401    c-3.6-3.001-7.5-5.402-12.599-8.701c-4.801-2.699-10.501-2.999-15.3-0.3C3.3,354.2,0.3,358.999,0,364.699V497    c0,3.9,1.5,7.8,4.501,10.499C7.2,510.5,11.1,512,15,512h132.3c5.7-0.3,10.201-3.9,12.902-8.701    c2.699-4.799,2.098-11.1-0.601-15.599c-2.701-4.2-5.099-8.101-8.101-11.7c-5.4-7.423-3.885-16.155,2.401-21.301    c6.301-5.099,15.899-3.9,21,2.401c10.499,12.9,18.9,27.9,24.899,44.399c2.1,6,7.8,10.501,14.101,10.501H276.9    c4.501,0,9.001-2.701,11.7-6.301c2.999-3.9,3.9-8.699,2.701-13.2c-4.801-17.699-11.1-34.499-18.6-49.2    c-3.492-6.984-1.348-16.126,6.599-20.099c7.2-3.9,16.199-0.899,20.099,6.301C309.6,449.6,317.7,471.8,322.8,495.201    c1.8,7.8,9.6,12.9,17.699,11.4c22.202-4.501,42.601-11.7,60.901-21.901c6-3.3,9-10.199,7.2-16.8c-8.699-36-22.5-69.3-40.199-99.3    c-3.743-6.416-2.324-16.196,5.4-20.7c6.921-3.776,16.318-2.084,20.4,5.4c14.7,24.6,26.7,51.601,36,80.101    c1.8,5.4,6.299,9.3,11.699,10.199c5.4,0.901,11.1-1.199,14.401-5.7C497.401,385.1,507.6,308.9,481.8,248.3z" data-original="#000000" class="active-path" fill="#FFFFFF"/>
	</g>
</g></g> </svg>
