<?xml version="1.0" encoding="utf-8"?>
<!-- Generator: Adobe Illustrator 22.0.0, SVG Export Plug-In . SVG Version: 6.00 Build 0)  -->
<svg version="1.1" id="logo" xmlns="http://www.w3.org/2000/svg" xmlns:xlink="http://www.w3.org/1999/xlink" x="0px" y="0px"
	 viewBox="0 0 90.9 62" style="enable-background:new 0 0 90.9 62;" xml:space="preserve">
<style type="text/css">
	.st0{fill:#FFFFFF;}
</style>
<g>
	<g>
		<g>
			<g>
				<path class="st0" d="M66.1,62h4.1c4.1,0,7.9-2.5,9.5-6.3c6.2-0.6,11-5.8,11.2-12c0.2-6.3-4.4-11.6-10.6-12.6
					C78.2,12.8,62.2-0.9,43.7,0c-17.1,1-31,14.1-33.1,31.1C4.5,32-0.1,37.4,0,43.6s4.9,11.5,11.2,12.1c1.6,3.8,5.4,6.3,9.5,6.3h4.1
					 M80.6,35.4c3.6,0.9,6.2,4.2,6.2,8c0,3.8-2.6,7-6.2,8V35.4z M10.3,36.1v15.3c-3.6-0.9-6.2-4.2-6.2-8c0-3.8,2.6-7.1,6.2-8
					C10.4,35.6,10.3,35.8,10.3,36.1z M28.9,62H62 M20.7,57.8c-3.4,0-6.2-2.8-6.2-6.2V36.1C14.2,19.3,27.2,5.2,43.9,4.2
					c0.5,0,1,0,1.5,0c17.1,0,31,13.9,31,31v16.5c0,3.4-2.8,6.2-6.2,6.2C70.2,57.8,20.7,57.8,20.7,57.8z"/>
				<path class="st0" d="M59,19.8c-2.2-1.9-5.1-2.6-8-2.1c-2.1,0.4-4.1,1.4-5.6,2.9C43.9,19,42,18,39.9,17.7c-2.8-0.5-5.8,0.3-8,2.1
					c-3.8,3.3-4,9.7-0.5,15.9c2.6,5,9.2,9.4,13,11.5c0.6,0.4,1.4,0.4,2.1,0c3.7-2.2,10.3-6.6,12.9-11.5C62.9,29.5,62.8,23.1,59,19.8
					z M55.8,33.8c-1.5,2.7-5.3,6.2-10.4,9.3c-5.1-3.1-8.9-6.5-10.4-9.3c-2.5-4.4-2.7-8.8-0.4-10.8c1-0.8,2.3-1.3,3.6-1.2
					c0.3,0,0.7,0,1,0.1c1.9,0.3,3.6,1.6,4.5,3.3c0.4,0.6,1.1,1,1.8,1c0.7,0,1.4-0.4,1.8-1c0.9-1.7,2.5-3,4.5-3.3
					c1.6-0.3,3.3,0.1,4.5,1.2C58.5,24.9,58.3,29.3,55.8,33.8z"/>
			</g>
		</g>
	</g>
</g>
</svg>
